<svg width="10" height="10" viewBox="0 0 10 10" fill="none" xmlns="http://www.w3.org/2000/svg">
<mask id="path-1-inside-1_122_4045" fill="white">
<path fill-rule="evenodd" clip-rule="evenodd" d="M7.27254 2.31836C7.27284 2.30319 7.27299 2.28797 7.27299 2.27273C7.27299 1.01753 6.25546 0 5.00027 0C3.74507 0 2.72754 1.01753 2.72754 2.27273C2.72754 2.28804 2.72769 2.30332 2.72799 2.31856C2.5809 2.28865 2.42865 2.27295 2.27273 2.27295C1.01753 2.27295 0 3.29048 0 4.54568C0 5.42439 0.498678 6.18662 1.22847 6.56482C1.02562 6.90494 0.909091 7.3025 0.909091 7.72727C0.909091 8.98247 1.92663 10 3.18182 10C3.9254 10 4.58557 9.64291 5.0002 9.09086C5.41484 9.64293 6.07503 10 6.81863 10C8.07382 10 9.09135 8.98251 9.09135 7.72732C9.09135 7.30238 8.97473 6.90468 8.77175 6.56448C9.50118 6.18617 9.99956 5.42412 9.99956 4.54568C9.99956 3.29048 8.98202 2.27295 7.72683 2.27295C7.57125 2.27295 7.41933 2.28858 7.27254 2.31836Z"/>
</mask>
<path d="M7.27254 2.31836L6.27274 2.29866C6.26676 2.60213 6.39894 2.89189 6.63203 3.08631C6.86512 3.28072 7.17389 3.35874 7.47136 3.2984L7.27254 2.31836ZM2.72799 2.31856L2.52874 3.29851C2.82627 3.359 3.13517 3.28105 3.36837 3.08662C3.60156 2.89219 3.7338 2.60235 3.7278 2.29879L2.72799 2.31856ZM1.22847 6.56482L2.08732 7.07704C2.22847 6.84037 2.2657 6.55594 2.19022 6.29091C2.11474 6.02589 1.93324 5.80376 1.68858 5.67696L1.22847 6.56482ZM5.0002 9.09086L5.7998 8.49032C5.61092 8.23883 5.31473 8.09086 5.00022 8.09086C4.6857 8.09085 4.3895 8.23882 4.20062 8.4903L5.0002 9.09086ZM8.77175 6.56448L8.31134 5.67677C8.06674 5.80364 7.88532 6.0258 7.80992 6.29083C7.73452 6.55585 7.77181 6.84024 7.91299 7.07687L8.77175 6.56448ZM6.27299 2.27273C6.27299 2.28141 6.27291 2.29005 6.27274 2.29866L8.27235 2.33806C8.27278 2.31632 8.27299 2.29454 8.27299 2.27273H6.27299ZM5.00027 1C5.70317 1 6.27299 1.56982 6.27299 2.27273H8.27299C8.27299 0.46525 6.80774 -1 5.00027 -1V1ZM3.72754 2.27273C3.72754 1.56982 4.29736 1 5.00027 1V-1C3.19279 -1 1.72754 0.46525 1.72754 2.27273H3.72754ZM3.7278 2.29879C3.72763 2.29013 3.72754 2.28144 3.72754 2.27273H1.72754C1.72754 2.29464 1.72776 2.31651 1.72819 2.33833L3.7278 2.29879ZM2.27273 3.27295C2.36135 3.27295 2.44686 3.28186 2.52874 3.29851L2.92724 1.33861C2.71494 1.29544 2.49595 1.27295 2.27273 1.27295V3.27295ZM1 4.54568C1 3.84277 1.56982 3.27295 2.27273 3.27295V1.27295C0.46525 1.27295 -1 2.7382 -1 4.54568H1ZM1.68858 5.67696C1.2774 5.46388 1 5.03634 1 4.54568H-1C-1 5.81244 -0.280044 6.90937 0.768351 7.45268L1.68858 5.67696ZM1.90909 7.72727C1.90909 7.48778 1.97429 7.26657 2.08732 7.07704L0.369608 6.05261C0.0769595 6.54331 -0.0909091 7.11721 -0.0909091 7.72727H1.90909ZM3.18182 9C2.47891 9 1.90909 8.43018 1.90909 7.72727H-0.0909091C-0.0909091 9.53475 1.37434 11 3.18182 11V9ZM4.20062 8.4903C3.96673 8.80171 3.59757 9 3.18182 9V11C4.25322 11 5.20441 10.4841 5.79979 9.69141L4.20062 8.4903ZM6.81863 9.00004C6.40286 9.00004 6.03369 8.80174 5.7998 8.49032L4.20061 9.69139C4.79599 10.4841 5.7472 11 6.81863 11V9.00004ZM8.09135 7.72732C8.09135 8.43022 7.52153 9.00004 6.81863 9.00004V11C8.6261 11 10.0914 9.53479 10.0914 7.72732H8.09135ZM7.91299 7.07687C8.0261 7.26645 8.09135 7.48774 8.09135 7.72732H10.0914C10.0914 7.11702 9.92336 6.54292 9.6305 6.0521L7.91299 7.07687ZM8.99956 4.54568C8.99956 5.03619 8.72232 5.46362 8.31134 5.67677L9.23215 7.45219C10.28 6.90871 10.9996 5.81206 10.9996 4.54568H8.99956ZM7.72683 3.27295C8.42974 3.27295 8.99956 3.84277 8.99956 4.54568H10.9996C10.9996 2.7382 9.53431 1.27295 7.72683 1.27295V3.27295ZM7.47136 3.2984C7.55309 3.28182 7.63841 3.27295 7.72683 3.27295V1.27295C7.50409 1.27295 7.28557 1.29535 7.07373 1.33833L7.47136 3.2984Z" fill="black" mask="url(#path-1-inside-1_122_4045)"/>
<path d="M5 3.75V5.25M5 5.25L3.5 4.75M5 5.25L4 6.75M5 5.25L6 6.75M5 5.25L6.5 4.75" stroke="black" stroke-linecap="round" stroke-linejoin="round"/>
</svg>
