<svg width="16" height="16" viewBox="0 0 16 16" fill="none" xmlns="http://www.w3.org/2000/svg">
<rect width="16" height="16" fill="white"/>
<path d="M6.13379 12.5C6.13379 12.5 5.4668 12 5.13385 11C4.8009 9.99998 5.13475 9 5.63428 8C6.08115 7.1054 5.13366 6.5 5.13366 5.5C5.13366 4.99232 5.34849 4.74238 5.64726 4.61933C6.15792 4.409 6.63385 4.05228 6.63385 3.5V3" stroke="black" stroke-linecap="round" stroke-linejoin="round"/>
<path d="M9.5 12.5C9.5 12.5 10.167 12 10.4999 11C10.8329 9.99998 10.499 9 9.99951 8C9.55264 7.1054 10.5001 6.5 10.5001 5.5C10.5001 4.99232 10.2853 4.74238 9.98653 4.61933C9.47587 4.409 8.99994 4.05228 8.99994 3.5V3" stroke="black" stroke-linecap="round" stroke-linejoin="round"/>
</svg>
